<svg xmlns="http://www.w3.org/2000/svg" width="320" height="320" viewBox="0 0 320 320" shape-rendering="crispEdges"><path fill="#000" d="M0 0H320V320H0Z"/><path fill="#ffff00" d="M16 79h25v12h-25zM59 79h25v12h-25zM102 79h25v12h-25zM16 103h25v12h-25zM59 103h25v12h-25zM102 103h25v12h-25zM16 128h25v11h-25zM59 128h25v11h-25zM102 128h25v11h-25zM16 145h25v12h-25zM59 145h25v12h-25zM102 145h21v12h-21zM16 169h25v12h-25zM59 169h25v12h-25zM102 169h25v12h-25zM16 194h25v12h-25zM59 194h25v12h-25zM102 194h25v12h-25zM16 217h25v12h-25zM59 217h25v12h-25zM102 217h25v12h-25z"/><path fill="#ff0000" d="M279 67h25v12h-25zM257 79h47v12h-47zM236 91h68v12h-68zM214 103h90v12h-90zM193 115h111v13h-111zM166 128h138v5h-138zM145 133h159v12h-159zM123 145h181v24h-181zM145 169h159v12h-159zM166 181h138v13h-138zM193 194h111v12h-111zM214 206h90v11h-90zM236 217h68v12h-68zM257 229h47v12h-47zM279 241h25v12h-25z"/></svg>