<svg xmlns="http://www.w3.org/2000/svg" width="320" height="320" viewBox="0 0 320 320" shape-rendering="crispEdges"><path fill="#000" d="M0 0H320V320H0Z"/><path fill="#ffffff" d="M141 53h17v14h-17zM124 67h34v14h-34zM107 81h51v14h-51zM89 95h69v13h-69zM69 108h89v14h-89zM51 122h107v14h-107zM34 136h124v13h-124zM16 149h142v21h-142zM34 170h124v14h-124zM51 184h107v14h-107zM69 198h89v13h-89zM89 211h69v13h-69zM107 224h51v15h-51zM124 239h34v13h-34zM141 252h17v14h-17z"/><path fill="#75fb4c" d="M158 54h21v13h-21zM158 67h39v14h-39zM158 81h56v14h-56zM158 95h73v13h-73zM158 108h94v14h-94zM158 122h111v14h-111zM158 136h129v13h-129zM158 149h146v21h-146zM158 170h129v14h-129zM158 184h111v14h-111zM158 198h94v13h-94zM158 211h73v13h-73zM158 224h56v15h-56zM158 239h39v13h-39zM158 252h21v13h-21z"/></svg>